<svg width="48" height="48" viewBox="0 0 48 48" fill="none" xmlns="http://www.w3.org/2000/svg">
<path d="M36.0143 0C37.6583 0 39.2067 0.315412 40.6595 0.946237C42.1123 1.57706 43.3835 2.43728 44.4731 3.52688C45.5627 4.61649 46.4229 5.88769 47.0538 7.3405C47.6846 8.79331 48 10.3417 48 11.9857V35.957C48 37.601 47.6846 39.1589 47.0538 40.6308C46.4229 42.1027 45.5627 43.3835 44.4731 44.4731C43.3835 45.5627 42.1123 46.4229 40.6595 47.0538C39.2067 47.6846 37.6583 48 36.0143 48H11.9857C10.3417 48 8.79331 47.6846 7.3405 47.0538C5.88769 46.4229 4.61649 45.5627 3.52688 44.4731C2.43728 43.3835 1.57706 42.1027 0.946237 40.6308C0.315412 39.1589 0 37.601 0 35.957V11.9857C0 10.3417 0.315412 8.79331 0.946237 7.3405C1.57706 5.88769 2.43728 4.61649 3.52688 3.52688C4.61649 2.43728 5.88769 1.57706 7.3405 0.946237C8.79331 0.315412 10.3417 0 11.9857 0H36.0143ZM16.5161 18.0072H10.4946V37.5054H16.5161V18.0072ZM13.5341 16.4588C14.3369 16.4588 15.0346 16.172 15.6272 15.5986C16.2198 15.0251 16.5161 14.3178 16.5161 13.4767C16.5161 12.6356 16.2198 11.9283 15.6272 11.3548C15.0346 10.7814 14.3369 10.4946 13.5341 10.4946C12.693 10.4946 11.9761 10.7814 11.3835 11.3548C10.7909 11.9283 10.4946 12.6356 10.4946 13.4767C10.4946 14.3178 10.7909 15.0251 11.3835 15.5986C11.9761 16.172 12.693 16.4588 13.5341 16.4588ZM37.5054 26.2079C37.5054 24.8315 37.1231 23.4839 36.3584 22.1649C35.5938 20.8459 34.5998 19.8423 33.3763 19.1541C32.2676 18.5424 30.9773 18.2174 29.5054 18.1792C28.0335 18.141 26.7049 18.3895 25.5197 18.9247V18.0072H19.4982V37.5054H25.5197V25.5771L27.9857 24.3728C28.2915 24.2198 28.7121 24.1434 29.2473 24.1434C29.7826 24.1434 30.184 24.2389 30.4516 24.4301C30.681 24.5448 30.9104 24.7933 31.1398 25.1756C31.3692 25.5579 31.4839 25.902 31.4839 26.2079V37.5054H37.5054V26.2079Z" fill="#000"/>
</svg>
