<svg width="91" height="91" viewBox="0 0 91 91" fill="none" xmlns="http://www.w3.org/2000/svg">
<path d="M75.4525 41.3954H14.8647C12.8903 41.3954 11.2897 42.996 11.2897 44.9704V45.3467C11.2897 47.3212 12.8903 48.9218 14.8647 48.9218H75.4525C77.4269 48.9218 79.0275 47.3212 79.0275 45.3467V44.9704C79.0275 42.996 77.4269 41.3954 75.4525 41.3954Z" fill="#231F20"/>
<path d="M75.4525 60.2114H14.8647C12.8903 60.2114 11.2897 61.812 11.2897 63.7865V64.1628C11.2897 66.1372 12.8903 67.7379 14.8647 67.7379H75.4525C77.4269 67.7379 79.0275 66.1372 79.0275 64.1628V63.7865C79.0275 61.812 77.4269 60.2114 75.4525 60.2114Z" fill="#231F20"/>
<path d="M75.4525 22.5793H14.8647C12.8903 22.5793 11.2897 24.1799 11.2897 26.1543V26.5307C11.2897 28.5051 12.8903 30.1057 14.8647 30.1057H75.4525C77.4269 30.1057 79.0275 28.5051 79.0275 26.5307V26.1543C79.0275 24.1799 77.4269 22.5793 75.4525 22.5793Z" fill="#231F20"/>
</svg>
