<svg width="48" height="48" viewBox="0 0 48 48" fill="#000" xmlns="http://www.w3.org/2000/svg">
<path d="M24 12C24.5304 12 25.0391 11.7893 25.4142 11.4142C25.7893 11.0391 26 10.5304 26 10V6C26 5.46957 25.7893 4.96086 25.4142 4.58579C25.0391 4.21071 24.5304 4 24 4C23.4696 4 22.9609 4.21071 22.5858 4.58579C22.2107 4.96086 22 5.46957 22 6V10C22 10.5304 22.2107 11.0391 22.5858 11.4142C22.9609 11.7893 23.4696 12 24 12Z" fill="#000"/>
<path d="M42 22H38C37.4696 22 36.9609 22.2107 36.5858 22.5858C36.2107 22.9609 36 23.4696 36 24C36 24.5304 36.2107 25.0391 36.5858 25.4142C36.9609 25.7893 37.4696 26 38 26H42C42.5304 26 43.0391 25.7893 43.4142 25.4142C43.7893 25.0391 44 24.5304 44 24C44 23.4696 43.7893 22.9609 43.4142 22.5858C43.0391 22.2107 42.5304 22 42 22Z" fill="#000"/>
<path d="M12 24C12 23.4696 11.7893 22.9609 11.4142 22.5858C11.0391 22.2107 10.5304 22 10 22H6C5.46957 22 4.96086 22.2107 4.58579 22.5858C4.21071 22.9609 4 23.4696 4 24C4 24.5304 4.21071 25.0391 4.58579 25.4142C4.96086 25.7893 5.46957 26 6 26H10C10.5304 26 11.0391 25.7893 11.4142 25.4142C11.7893 25.0391 12 24.5304 12 24Z" fill="#000"/>
<path d="M12.44 10C12.0501 9.63137 11.5298 9.43269 10.9934 9.44769C10.457 9.46269 9.94862 9.69015 9.57997 10.08C9.21132 10.4699 9.01264 10.9902 9.02765 11.5266C9.04265 12.0629 9.2701 12.5714 9.65997 12.94L12.54 15.72C12.7332 15.9066 12.9621 16.0524 13.213 16.1486C13.4638 16.2448 13.7315 16.2895 14 16.28C14.2694 16.279 14.5358 16.2235 14.7833 16.117C15.0307 16.0105 15.2541 15.855 15.44 15.66C15.8125 15.2853 16.0216 14.7784 16.0216 14.25C16.0216 13.7216 15.8125 13.2147 15.44 12.84L12.44 10Z" fill="#000"/>
<path d="M34 16.28C34.5149 16.2779 35.0092 16.0773 35.38 15.72L38.26 12.94C38.6113 12.5729 38.8097 12.0858 38.815 11.5777C38.8202 11.0696 38.6318 10.5786 38.2881 10.2043C37.9444 9.83007 37.4712 9.60067 36.9645 9.56272C36.4577 9.52477 35.9556 9.68111 35.56 9.99998L32.68 12.84C32.3075 13.2147 32.0984 13.7216 32.0984 14.25C32.0984 14.7784 32.3075 15.2853 32.68 15.66C33.0263 16.0254 33.4976 16.2468 34 16.28Z" fill="#000"/>
<path d="M24 36C23.4696 36 22.9609 36.2107 22.5858 36.5858C22.2107 36.9609 22 37.4696 22 38V42C22 42.5304 22.2107 43.0391 22.5858 43.4142C22.9609 43.7893 23.4696 44 24 44C24.5304 44 25.0391 43.7893 25.4142 43.4142C25.7893 43.0391 26 42.5304 26 42V38C26 37.4696 25.7893 36.9609 25.4142 36.5858C25.0391 36.2107 24.5304 36 24 36Z" fill="#000"/>
<path d="M35.46 32.28C35.0781 31.9113 34.5654 31.7095 34.0347 31.7189C33.5039 31.7283 32.9987 31.9481 32.63 32.33C32.2614 32.7119 32.0595 33.2246 32.0689 33.7553C32.0783 34.2861 32.2981 34.7913 32.68 35.16L35.56 38C35.9308 38.3574 36.4251 38.5579 36.94 38.56C37.208 38.5616 37.4736 38.5093 37.7209 38.4062C37.9683 38.3031 38.1924 38.1514 38.38 37.96C38.5675 37.7741 38.7163 37.5529 38.8178 37.3091C38.9193 37.0654 38.9716 36.804 38.9716 36.54C38.9716 36.276 38.9193 36.0146 38.8178 35.7708C38.7163 35.5271 38.5675 35.3059 38.38 35.12L35.46 32.28Z" fill="#000"/>
<path d="M12.54 32.28L9.65996 35.06C9.4725 35.2459 9.32371 35.4671 9.22217 35.7108C9.12064 35.9546 9.06836 36.216 9.06836 36.48C9.06836 36.744 9.12064 37.0054 9.22217 37.2491C9.32371 37.4929 9.4725 37.7141 9.65996 37.9C9.84754 38.0914 10.0717 38.2431 10.319 38.3462C10.5664 38.4492 10.832 38.5016 11.1 38.5C11.593 38.5042 12.0702 38.3261 12.44 38L15.32 35.22C15.7019 34.8513 15.9217 34.3461 15.9311 33.8153C15.9404 33.2846 15.7386 32.7719 15.37 32.39C15.0013 32.0081 14.496 31.7883 13.9653 31.7789C13.4346 31.7695 12.9219 31.9713 12.54 32.34V32.28Z" fill="#000"/>
<path d="M24 16C22.4178 16 20.871 16.4692 19.5554 17.3482C18.2399 18.2273 17.2145 19.4767 16.609 20.9385C16.0035 22.4003 15.845 24.0089 16.1537 25.5607C16.4624 27.1126 17.2243 28.538 18.3431 29.6569C19.462 30.7757 20.8874 31.5376 22.4393 31.8463C23.9911 32.155 25.5997 31.9965 27.0615 31.391C28.5233 30.7855 29.7727 29.7602 30.6518 28.4446C31.5308 27.129 32 25.5823 32 24C32 21.8783 31.1572 19.8434 29.6569 18.3431C28.1566 16.8429 26.1217 16 24 16Z" fill="#000"/>
</svg>
