<svg width="48" height="48" viewBox="0 0 48 48" fill="none" xmlns="http://www.w3.org/2000/svg">
<path d="M48 9.1134C46.2331 9.89636 44.3372 10.4273 42.3454 10.6643C44.3792 9.44638 45.9391 7.5145 46.6741 5.21665C44.7722 6.34458 42.6633 7.16353 40.4195 7.6075C38.6226 5.69362 36.0637 4.49669 33.2319 4.49669C27.7933 4.49669 23.3835 8.90642 23.3835 14.3421C23.3835 15.113 23.4705 15.866 23.6385 16.5859C15.455 16.175 8.19849 12.2542 3.34179 6.29658C2.49584 7.75149 2.00987 9.44338 2.00987 11.2493C2.00987 14.6661 3.74677 17.6809 6.3896 19.4448C4.7787 19.3938 3.2608 18.9498 1.93188 18.2118V18.3348C1.93188 23.1045 5.32767 27.0853 9.83039 27.9912C9.00244 28.2162 8.13249 28.3392 7.23555 28.3392C6.59959 28.3392 5.98463 28.2762 5.38166 28.1622C6.63559 32.074 10.2714 34.9208 14.5791 35.0018C11.2103 37.6416 6.96256 39.2165 2.34885 39.2165C1.5539 39.2165 0.770952 39.1685 0 39.0785C4.35873 41.8714 9.5334 43.5033 15.0951 43.5033C33.2079 43.5033 43.1133 28.4982 43.1133 15.485C43.1133 15.059 43.1043 14.6331 43.0833 14.2101C45.0092 12.8212 46.6801 11.0873 48 9.1134Z" fill="#000"/>
</svg>
