<svg width="48" height="48" viewBox="0 0 48 48" fill="none" xmlns="http://www.w3.org/2000/svg">
<path d="M19.092 31.137V16.863L31.635 24L19.092 31.137ZM46.998 12.372C46.446 10.293 44.817 8.655 42.753 8.1C39.009 7.092 24 7.092 24 7.092C24 7.092 8.991 7.092 5.247 8.1C3.183 8.655 1.554 10.293 1.002 12.372C0 16.14 0 24 0 24C0 24 0 31.86 1.002 35.628C1.554 37.707 3.183 39.345 5.247 39.9C8.991 40.908 24 40.908 24 40.908C24 40.908 39.009 40.908 42.753 39.9C44.817 39.345 46.446 37.707 46.998 35.628C48 31.86 48 24 48 24C48 24 48 16.14 46.998 12.372Z" fill="#000"/>
</svg>
